<?xml version="1.0" encoding="utf-8"?>
<!-- Generator: Adobe Illustrator 19.1.0, SVG Export Plug-In . SVG Version: 6.00 Build 0)  -->
<svg version="1.2" baseProfile="tiny" id="Layer_1" xmlns="http://www.w3.org/2000/svg" xmlns:xlink="http://www.w3.org/1999/xlink"
	 x="0px" y="0px" viewBox="0 0 25 25" xml:space="preserve">
<path fill="none" stroke="#057eaa" stroke-width="1" stroke-miterlimit="10" d="M15.7,7.7c-0.4,0.6-0.3,1.5,0.4,1.9l0.4,0.3
	c0.6,0.4,1,1.3,0.7,2c-0.1,0.3-1.1,1.7-2.4,2.9c-1.2,1.2-2.7,2.1-3,2.3c-0.7,0.2-1.7-0.1-2.1-0.7l-0.3-0.4c-0.4-0.6-1.3-0.8-2-0.4
	L3,18.3c-0.6,0.4-0.7,1.2-0.1,1.7l1.3,1.1c0.6,0.5,1.7,0.9,2.5,0.8c0,0,1.2-0.1,2.4-0.3c1.6-0.3,3.1-0.9,4.4-1.5
	c2-0.9,3.4-2.1,4.2-2.8c0.8-0.7,2-2.1,3-3.9c0.6-1.2,1.2-2.6,1.6-4.2C22.4,8.1,22.5,7,22.5,7c0-0.7-0.4-1.8-0.9-2.3l-1.2-1.2
	c-0.5-0.5-1.3-0.5-1.8,0.1L15.7,7.7z"/>
</svg>
